<svg width="219" height="65" viewBox="0 0 219 65" fill="none" xmlns="http://www.w3.org/2000/svg">
<path d="M127.354 56.8378C133.202 56.8378 137.942 52.0973 137.942 46.2496C137.942 40.4019 133.202 35.6614 127.354 35.6614C121.506 35.6614 116.766 40.4019 116.766 46.2496C116.766 52.0973 121.506 56.8378 127.354 56.8378Z" fill="#9A1725"/>
<path d="M117.942 16.0304C121.8 16.0304 124.928 12.903 124.928 9.0451C124.928 5.18723 121.8 2.05981 117.942 2.05981C114.084 2.05981 110.957 5.18723 110.957 9.0451C110.957 12.903 114.084 16.0304 117.942 16.0304Z" fill="#F1592A"/>
<path d="M102.352 11.4706C105.52 11.4706 108.088 8.90279 108.088 5.73528C108.088 2.56777 105.52 0 102.352 0C99.185 0 96.6172 2.56777 96.6172 5.73528C96.6172 8.90279 99.185 11.4706 102.352 11.4706Z" fill="#F8931D"/>
<path d="M88.8234 15.6632C91.7473 15.6632 94.1175 13.2929 94.1175 10.3691C94.1175 7.4452 91.7473 5.07495 88.8234 5.07495C85.8995 5.07495 83.5293 7.4452 83.5293 10.3691C83.5293 13.2929 85.8995 15.6632 88.8234 15.6632Z" fill="#FCB040"/>
<path d="M82.2061 24.5604C84.5614 24.5604 86.4708 22.651 86.4708 20.2957C86.4708 17.9404 84.5614 16.031 82.2061 16.031C79.8508 16.031 77.9414 17.9404 77.9414 20.2957C77.9414 22.651 79.8508 24.5604 82.2061 24.5604Z" fill="#FECB56"/>
<path d="M137.059 23.8981C137.059 25.8834 136.324 27.6481 135.147 29.0452C133.75 30.6628 131.618 31.6922 129.265 31.6922C126.471 31.6922 123.971 30.2216 122.574 27.9422C121.838 26.7658 121.471 25.3687 121.471 23.8981C121.471 19.6334 124.927 16.104 129.265 16.104C133.603 16.104 137.059 19.5599 137.059 23.8981Z" fill="#EE4037"/>
<path d="M33.75 27.2793C31.6911 27.2793 30 28.8969 29.9264 30.9558C26.8382 28.6764 22.9412 27.2793 18.75 27.2793C8.38234 27.2793 0 35.6617 0 46.0293C0 56.3969 8.38234 64.7793 18.75 64.7793C22.9412 64.7793 26.7647 63.3822 29.9264 61.1028C29.9264 61.1028 29.9264 61.1028 29.9264 61.1763C29.9264 63.3087 31.6176 64.9998 33.75 64.9998C35.8823 64.9998 37.5735 63.2351 37.5735 61.1763V31.1028C37.5735 29.044 35.8823 27.2793 33.75 27.2793ZM18.6765 57.1322C12.5735 57.1322 7.64705 52.2057 7.64705 46.1028C7.64705 39.9999 12.5735 35.0734 18.6765 35.0734C24.7794 35.0734 29.7058 39.9999 29.7058 46.1028C29.7058 52.2057 24.8529 57.1322 18.6765 57.1322Z" fill="#3A3A3C"/>
<path d="M159.779 27.2794C155.882 27.2794 152.279 28.4559 149.264 30.5147V20.2941C149.264 18.0882 147.426 16.25 145.22 16.25C143.014 16.25 141.176 18.0882 141.176 20.2941V33.4559C142.058 34.4118 142.867 35.5147 143.529 36.6176C145.146 39.4117 146.102 42.647 146.102 46.0294C146.102 49.4853 145.146 52.7206 143.529 55.4411C142.867 56.6176 142.058 57.647 141.176 58.6029V60.8823C141.176 63.0882 143.014 64.8529 145.22 64.8529C147.205 64.8529 148.896 63.3823 149.19 61.4706C152.205 63.5294 155.808 64.7058 159.705 64.7058C170.073 64.7058 178.455 56.3235 178.455 45.9559C178.602 35.7353 170.146 27.2794 159.779 27.2794ZM159.779 57.1323C154.926 57.1323 150.735 53.9706 149.264 49.5588C148.896 48.4558 148.676 47.2794 148.676 46.0294C148.676 44.7794 148.896 43.6029 149.264 42.5C150.735 38.0882 154.852 34.9265 159.779 34.9265C165.882 34.9265 170.808 39.8529 170.808 45.9559C170.808 52.0588 165.882 57.1323 159.779 57.1323Z" fill="#3A3A3C"/>
<path d="M199.779 27.2793C189.412 27.2793 181.029 35.6617 181.029 46.0293C181.029 56.3969 189.412 64.7793 199.779 64.7793C210.147 64.7793 218.529 56.3969 218.529 46.0293C218.529 35.7352 210.147 27.2793 199.779 27.2793ZM199.779 57.1322C193.676 57.1322 188.75 52.2057 188.75 46.1028C188.75 39.9999 193.676 35.0734 199.779 35.0734C205.882 35.0734 210.809 39.9999 210.809 46.1028C210.809 52.2057 205.882 57.1322 199.779 57.1322Z" fill="#3A3A3C"/>
<path d="M51.8386 28.5307C52.1327 28.4571 52.4268 28.4571 52.6474 28.4571C54.7797 28.4571 56.4709 30.2218 56.4709 32.2807C56.4709 34.413 54.7797 36.1042 52.6474 36.1042C52.2062 36.1042 51.765 36.0307 51.3239 35.8836V60.8836C51.3239 63.0895 49.4856 64.9277 47.2797 64.9277C45.0739 64.9277 43.2356 63.0895 43.2356 60.8836V36.1042C41.1033 36.1042 39.4121 34.3395 39.4121 32.2807C39.4121 30.1483 41.1768 28.4571 43.2356 28.4571C43.2356 28.4571 43.7503 15.8101 54.8533 16.0307C57.1327 16.0307 58.9709 17.8689 58.9709 20.1483C58.9709 22.4277 57.1327 24.266 54.9268 24.266C54.8533 24.266 54.7797 24.266 54.6327 24.266C53.8974 24.3395 51.765 24.8542 51.8386 28.5307Z" fill="#3A3A3C"/>
<path d="M76.3228 32.427C76.3228 34.6329 74.5581 36.3976 72.3522 36.3976C72.0581 36.3976 66.8375 36.4712 66.8375 43.0153V60.9564C66.8375 63.1623 64.9993 65.0005 62.7934 65.0005C60.5875 65.0005 58.7493 63.1623 58.7493 60.9564V33.1623C58.6758 32.9418 58.6758 32.7212 58.6758 32.427C58.6758 30.2947 60.367 28.6035 62.4993 28.6035C64.6317 28.6035 66.3228 30.3682 66.3228 32.427C66.3228 32.6476 66.3228 32.7947 66.2493 33.0153C69.1169 27.7947 72.0581 28.3829 72.2052 28.3829C74.5581 28.4565 76.3228 30.2212 76.3228 32.427Z" fill="#3A3A3C"/>
<path d="M86.0299 32.2803V60.9567C86.0299 63.0891 84.3387 64.7803 82.2063 64.7803C80.074 64.7803 78.3828 63.0156 78.3828 60.9567V32.2803C78.3828 30.148 80.074 28.4568 82.2063 28.4568C84.3387 28.4568 86.0299 30.148 86.0299 32.2803Z" fill="#3A3A3C"/>
<path d="M118.529 63.9705C118.235 64.3382 112.794 64.1175 112.794 64.1175C112.794 64.1175 111.912 63.897 110.662 62.2793L109.926 61.1764L100.147 46.9117V60.9558C100.147 63.0881 98.3823 64.7793 96.3235 64.7793C94.1912 64.7793 92.5 63.0146 92.5 60.9558V21.397C92.5 19.2647 94.2647 17.5735 96.3235 17.5735C98.4559 17.5735 100.147 19.2647 100.147 21.397V45.2205L109.706 31.3235C110.441 30.5146 112.206 28.8235 115.147 28.4558C118.75 28.0147 118.088 29.5588 117.941 29.8529C112.353 33.0882 108.603 39.1911 108.603 46.1029C108.603 53.3087 112.647 59.5587 118.603 62.7205C118.603 62.7205 118.603 62.7205 118.676 62.7205C118.676 63.0146 118.75 63.6764 118.529 63.9705Z" fill="#3A3A3C"/>
</svg>
